<svg version="1.2" xmlns="http://www.w3.org/2000/svg" viewBox="0 0 402 77" width="402" height="77">
	<title>Logo metodo 01-svg</title>
	<style>
		.s0 { fill: #a07354 } 
	</style>
	<path id="Layer" class="s0" d="m79.5 15.4v46.2q0 1.9 0 2.9 0 0.9 0 2.4 0.1 1.6 0.3 2.3 0.1 0.8 0.4 2 0.3 1.1 0.7 1.6 0.4 0.6 1 1.3 0.5 0.7 1.3 1 0.8 0.3 1.9 0.5 1 0.2 2.4 0.2 1 0 1 0.5 0 0.5-1 0.5h-18.5q-1 0-1-0.5 0-0.5 1-0.5 1.3 0 2.4-0.2 1-0.2 1.8-0.5 0.8-0.3 1.4-1 0.6-0.7 1-1.3 0.4-0.5 0.6-1.6 0.3-1.2 0.5-2 0.1-0.7 0.2-2.3 0.1-1.6 0.1-2.5 0-1 0-2.9v-58l-32.3 73.4h-0.7l-32.5-70.8v55.5q0 1.9 0 2.9 0 0.9 0 2.4 0.1 1.6 0.3 2.3 0.1 0.8 0.4 2 0.3 1.1 0.7 1.6 0.3 0.6 0.9 1.3 0.6 0.7 1.4 1 0.8 0.3 1.8 0.5 1.1 0.2 2.5 0.2 1 0 1 0.5 0 0.5-1 0.5h-18.5q-1 0-1-0.5 0-0.5 1-0.5 1.3 0 2.3-0.2 1.1-0.2 1.9-0.5 0.8-0.3 1.4-1 0.6-0.7 1-1.3 0.4-0.5 0.6-1.6 0.3-1.2 0.5-2 0.1-0.7 0.2-2.3 0.1-1.6 0.1-2.5 0-1 0-2.9v-46.1q0-7.2-1.8-10.8-1.8-3.6-6.2-3.6-1 0-1-0.5 0-0.5 1-0.5h13.7l30.8 67 28.7-67 11.6 0.4c0.7 0 3.6 0.5 3.6 0.8 0 0.3-1.3-0.2-1.9-0.2q-4.5 0-6.2 3.6-1.8 3.6-1.8 10.8z"/>
	<path id="Layer" fill-rule="evenodd" class="s0" d="m51.5 1q-1 0-1-0.5 0-0.5 1.3-0.5h26.8q30.4 0 30.4 16.8 0 7.6-6.7 12.2-6.7 4.6-17.8 4.6v0.2q8.4 0 15.5 3 7 2.9 11.1 8.1 4.1 5 4.1 11.1 0 6-4 10.7-3.9 4.8-10.7 7.5-6.7 2.6-15 2.6h-33.7q-1.2 0-1.2-0.5 0-0.5 1-0.5 4 0 4.9-4.7 0.8-4.7 0.8-21.5v-24.8q0-16.1-0.8-19.9-0.8-3.9-5-3.9zm11 0v32.2h20.1q9.1 0 15.1-4.7 6.1-4.7 6.1-11.7 0-15.8-28.1-15.8zm0 74.8h18.4q13.2 0 21.1-5.5 7.9-5.5 7.9-14.7 0-9.5-8.1-15.4-8.1-6-21-6h-18.3z"/>
	<path id="Layer" fill-rule="evenodd" class="s0" d="m125.6 15.6q-0.4 0-0.4-0.2 0-0.2 0.5-0.2h9.2q10.6 0 10.6 5.9 0 2.6-2.3 4.2-2.3 1.6-6.2 1.6v0.1q2.9 0 5.4 1 2.4 1 3.8 2.8 1.4 1.8 1.4 3.9 0 2-1.3 3.7-1.4 1.7-3.7 2.6-2.4 0.9-5.2 0.9h-11.7q-0.5 0-0.5-0.2 0-0.2 0.4-0.2 1.4 0 1.7-1.6 0.3-1.6 0.3-7.4v-8.7q0-5.5-0.3-6.9-0.3-1.3-1.7-1.3zm3.8 0v11.2h6.9q3.2 0 5.3-1.7 2.1-1.6 2.1-4 0-5.5-9.8-5.5zm0 25.9h6.4q4.6 0 7.4-1.9 2.7-1.9 2.7-5.1 0-3.3-2.8-5.3-2.8-2.1-7.3-2.1h-6.4zm19.6-9.8q0-3 1.2-5.4 1.3-2.3 3.5-3.7 2.2-1.3 4.9-1.3 2.8 0 5 1.3 2.2 1.4 3.5 3.8 1.2 2.3 1.2 5.3 0 4.4-2.7 7.3-2.7 2.9-6.9 2.9-4.2 0-7-2.9-2.7-2.9-2.7-7.3zm1.8 0q0 4.3 2.2 7 2.3 2.8 5.7 2.8 3.4 0 5.6-2.8 2.2-2.7 2.2-7 0-2.9-1-5.2-1-2.3-2.8-3.6-1.8-1.2-4-1.2-2.3 0-4.1 1.2-1.8 1.3-2.8 3.6-1 2.3-1 5.2zm28.4 9.8q2.3 0 3.8-1.2 1.5-1.3 1.5-3.1 0-1-0.5-1.8-0.5-0.8-1.4-1.3-0.8-0.5-1.9-0.9-1.2-0.4-2.4-0.8-1.3-0.3-2.5-0.7-1.2-0.3-2.4-0.7-1.1-0.5-1.9-1.1-0.9-0.6-1.4-1.4-0.5-0.9-0.5-2 0-2.4 2.3-3.8 2.3-1.4 5.8-1.4 3.3 0 5.5 1.2 2.3 1.1 2.7 3 0.1 0.4-0.2 0.8-0.2 0.3-0.7 0.3-0.4 0-0.7-0.3-0.4-0.3-0.5-0.8-0.8-2-2.2-2.9-1.4-0.9-3.9-0.9-2.9 0-4.7 1-1.9 1.1-1.9 2.9 0 1.2 0.9 2.1 0.8 0.9 2.2 1.4 1.3 0.6 2.9 1.1 1.7 0.5 3.3 1 1.6 0.5 3 1.2 1.3 0.7 2.2 1.7 0.8 1.1 0.8 2.5 0 2.4-2.2 3.8-2.1 1.5-5.7 1.5-2.4 0-4.9-0.6-2.5-0.6-3.8-1.5v-3.3q1.7 2.1 4.3 3.5 2.7 1.5 5.1 1.5zm18.2 0q2.3 0 3.8-1.2 1.5-1.3 1.5-3.1 0-1-0.5-1.8-0.5-0.8-1.4-1.3-0.8-0.5-2-0.9-1.1-0.4-2.3-0.8-1.3-0.3-2.5-0.7-1.3-0.3-2.4-0.7-1.1-0.5-2-1.1-0.8-0.6-1.3-1.4-0.6-0.9-0.6-2 0-2.4 2.3-3.8 2.4-1.4 5.9-1.4 3.3 0 5.5 1.2 2.2 1.1 2.7 3 0.1 0.4-0.2 0.8-0.2 0.3-0.7 0.3-0.4 0-0.7-0.3-0.4-0.3-0.6-0.8-0.7-2-2.1-2.9-1.5-0.9-3.9-0.9-2.9 0-4.8 1-1.8 1.1-1.8 2.9 0 1.2 0.9 2.1 0.8 0.9 2.1 1.4 1.4 0.6 3 1.1 1.7 0.5 3.3 1 1.6 0.5 3 1.2 1.3 0.7 2.1 1.7 0.9 1.1 0.9 2.5 0 2.4-2.2 3.8-2.1 1.5-5.7 1.5-2.4 0-4.9-0.6-2.5-0.6-3.8-1.5v-3.3q1.7 2.1 4.3 3.5 2.7 1.5 5.1 1.5zm26.9-20.2q2.3 0 4.1 1 1.8 1 2.8 2.6 1 1.5 1 3.4 0 1.3-0.8 2.1-0.7 0.8-1.9 1.1-1.2 0.3-2.7 0.4-1.4 0.1-3 0.1-1.6-0.1-3 0-1.4 0.1-2.5 0.5-1.1 0.3-1.5 1.1 0.5 3.5 2.5 5.7 2 2.2 4.9 2.2 2.1 0 4-1.1 2-1.2 3.1-3.3h0.3q-2.7 4.8-7.6 4.8-2.6 0-4.8-1.4-2.1-1.3-3.3-3.6-1.2-2.4-1.2-5.3 0-2.9 1.2-5.2 1.3-2.4 3.5-3.7 2.2-1.4 4.9-1.4zm-7.6 11.7q0.5-0.6 1.5-0.9 1.1-0.4 2.3-0.5 1.2-0.1 2.6-0.1 1.4-0.1 2.7-0.3 1.2-0.1 2.3-0.5 1-0.4 1.6-1.2 0.6-0.9 0.6-2.2-0.1-2.5-1.6-4.1-1.5-1.5-4.2-1.5-3.6 0-5.7 2.7-2.2 2.7-2.2 7.1 0 0.5 0.1 1.5zm20.3-3v2.4q0 2.2 0 3.5 0 1.3 0.1 2.5 0.1 1.1 0.2 1.6 0.1 0.6 0.4 0.9 0.2 0.4 0.5 0.5 0.3 0.1 0.7 0.1 0.4 0 0.4 0.2 0 0.2-0.4 0.2h-5.6q-0.4 0-0.4-0.2 0-0.2 0.4-0.2 0.4 0 0.7-0.1 0.3-0.1 0.5-0.5 0.3-0.3 0.4-0.9 0.1-0.5 0.2-1.6 0.1-1.2 0.1-2.5 0-1.3 0-3.5v-6.8q0-1.6-0.7-2.7-0.8-1.2-1.8-1.2-0.4 0-0.4-0.2 0-0.2 0.4-0.2h4.3v5.6h0.1q0.8-2.9 3.1-4.3 2.2-1.5 5.2-1.3 4.5 0.5 6.1 4.5 0.9-2.4 3-3.5 2.1-1.2 4.8-1 3.5 0.4 5.3 2.9 1.7 2.6 1.7 7.5v0.7q0 2.2 0 3.5 0 1.3 0.1 2.5 0.1 1.1 0.2 1.6 0.1 0.6 0.4 0.9 0.2 0.4 0.5 0.5 0.3 0.1 0.8 0.1 0.3 0 0.3 0.2 0 0.2-0.4 0.2h-5.6q-0.4 0-0.4-0.2 0-0.2 0.3-0.2 0.5 0 0.8-0.1 0.3-0.1 0.5-0.5 0.3-0.3 0.4-0.9 0.1-0.5 0.2-1.6 0.1-1.2 0.1-2.5 0-1.3 0-3.5v-0.7q0-4.4-1.4-6.6-1.3-2.3-4.1-2.7-2.6-0.4-4.5 0.8-1.9 1.1-2.8 3.3 0.7 2 0.7 5.2v0.7q0 2.2 0 3.5 0 1.3 0.1 2.5 0.1 1.1 0.2 1.6 0.1 0.6 0.3 0.9 0.3 0.4 0.6 0.5 0.3 0.1 0.7 0.1 0.4 0 0.4 0.2 0 0.2-0.5 0.2h-5.5q-0.4 0-0.4-0.2 0-0.2 0.3-0.2 0.5 0 0.8-0.1 0.3-0.1 0.5-0.5 0.2-0.3 0.3-0.9 0.2-0.5 0.2-1.6 0.1-1.2 0.1-2.5 0.1-1.3 0.1-3.5v-0.7q0-4.4-1.4-6.6-1.3-2.3-4.2-2.7-1.8-0.3-3.3 0.3-1.6 0.5-2.6 1.7-1 1.1-1.5 2.6-0.6 1.4-0.6 3zm57.1 11.9h-1.7l-8.5-20.9q-0.6-1.3-1-2.2-0.4-0.9-0.8-1.5-0.4-0.6-0.7-0.9-0.3-0.4-0.8-0.5-0.5-0.2-1-0.3-0.4 0-1.1 0-0.4 0-0.4-0.2 0-0.2 0.4-0.2h9.9q0.3 0 0.3 0.2 0 0.2-0.3 0.2-1.1 0-1.7 0.1-0.6 0.1-1.1 0.5-0.5 0.3-0.5 0.9-0.1 0.6 0.1 1.7 0.2 1 0.8 2.5l7.6 19.4 8.5-19.4q0.7-1.7 0.9-2.9 0.2-1.1-0.1-1.7-0.4-0.7-1.2-0.9-0.7-0.2-2-0.2-0.4 0-0.4-0.2 0-0.2 0.4-0.2h7.2q0.4 0 0.4 0.2 0 0.2-0.4 0.2-0.6 0-1 0.2-0.3 0.3-1 1.4-0.6 1.2-1.8 3.8zm19.5-20.6q2.2 0 4 1 1.9 1 2.9 2.6 0.9 1.6 0.9 3.4 0 1.3-0.7 2.1-0.7 0.8-1.9 1.1-1.2 0.3-2.7 0.4-1.5 0.1-3 0.1-1.6 0-3 0-1.4 0.1-2.5 0.5-1.1 0.4-1.6 1.1 0.5 3.6 2.6 5.8 2 2.2 4.9 2.2 2.1 0 4-1.2 1.9-1.1 3.1-3.3h0.3q-2.7 4.8-7.6 4.8-2.6 0-4.8-1.3-2.1-1.4-3.3-3.7-1.3-2.3-1.3-5.3 0-2.8 1.3-5.2 1.3-2.4 3.5-3.7 2.2-1.4 4.9-1.4zm-7.6 11.8q0.5-0.7 1.5-1 1.1-0.3 2.3-0.4 1.2-0.1 2.6-0.2 1.4-0.1 2.7-0.2 1.2-0.2 2.3-0.6 1-0.3 1.6-1.2 0.6-0.8 0.6-2.1-0.1-2.5-1.6-4.1-1.5-1.6-4.2-1.6-3.6 0-5.7 2.7-2.2 2.7-2.2 7.1 0 0.6 0.1 1.6zm20.3-3.1v2.5q0 2.1 0 3.5 0 1.3 0.1 2.4 0.1 1.1 0.2 1.7 0.1 0.5 0.3 0.9 0.3 0.4 0.6 0.5 0.3 0 0.7 0 0.4 0 0.4 0.2 0 0.2-0.4 0.2h-5.6q-0.4 0-0.4-0.2 0-0.2 0.3-0.2 0.5 0 0.8 0 0.3-0.1 0.5-0.5 0.3-0.4 0.4-0.9 0.1-0.6 0.2-1.7 0.1-1.1 0.1-2.4 0-1.4 0-3.5v-6.9q0-1.6-0.7-2.7-0.8-1.2-1.8-1.2-0.4 0-0.4-0.2 0-0.2 0.4-0.2h4.3v5.7h0.1q0.8-2.9 3-4.4 2.3-1.5 5.3-1.2 6.9 0.6 6.9 9.7v1.4q0 2.1 0.1 3.5 0 1.3 0.1 2.4 0 1.1 0.2 1.6 0.1 0.6 0.3 1 0.3 0.3 0.6 0.4 0.2 0.1 0.7 0.1 0.4 0 0.4 0.2 0 0.2-0.5 0.2h-5.5q-0.5 0-0.5-0.2 0-0.2 0.4-0.2 0.5 0 0.8 0 0.2-0.1 0.5-0.5 0.2-0.4 0.3-0.9 0.1-0.5 0.2-1.6 0.1-1.1 0.1-2.3 0-1.3 0-3.4v-1.1q0-4.4-1.3-6.6-1.3-2.2-4.2-2.7-1.8-0.3-3.3 0.3-1.6 0.6-2.6 1.7-1 1.1-1.6 2.6-0.5 1.5-0.5 3zm25.3 11.9q-3.3 0-5.4-2.9-2.1-2.9-2.1-7.4 0-4.5 2.1-7.3 2.1-3 5.4-3 3.5 0 5.8 3.6v-9.7h4.4v0.4q-0.3 0-0.7 0.2-0.4 0.2-0.9 0.6-0.4 0.4-0.7 1.2-0.3 0.8-0.3 1.9v22.4h-0.1l-1.7-3.5q-2.3 3.5-5.8 3.5zm0.2-0.3q1.4 0 3-1.1 1.6-1.1 2.6-2.8v-12.2q-1-1.7-2.6-2.8-1.6-1-3.1-1-2.5 0-4.1 2.8-1.6 2.8-1.6 7 0 4.3 1.7 7.2 1.6 2.9 4.1 2.9zm17.5 0.3q-3.3 0-5.2-1.5-1.9-1.5-1.9-4 0-1.2 0.4-2.2 0.4-1 1.1-1.7 0.7-0.7 1.7-1.3 1-0.6 2-1 1-0.4 2.3-0.8 1.2-0.4 2.2-0.7 1-0.2 2.2-0.5 1.1-0.3 1.8-0.5v-1.2q0-2.3-1.3-3.6-1.4-1.2-3.9-1.2-4.2 0-5.6 3.8-0.4 1.1-1.3 1.1-0.5 0-0.7-0.3-0.3-0.3-0.2-0.8 0.5-1.8 2.6-3 2.2-1.2 5.2-1.2 3.3 0 5.2 1.4 1.8 1.4 1.8 3.8c0 0.8 0 11.7 0 12.1q0.1 0.5 0.1 1.4 0.1 0.9 0.2 1.2 0.1 0.4 0.3 0.4 0.5 0 1.2-0.8 0.1-0.1 0.2 0 0 0.1 0 0.1-0.6 0.6-1 0.8-0.4 0.2-0.9 0.2-0.6 0-1-0.3-0.3-0.2-0.6-1-0.3-0.8-0.3-2.2-1 1.7-2.6 2.6-1.6 0.9-4 0.9zm6.6-13.7q-4.1 1-6.1 1.8-5.6 2.3-5.6 6.2 0 2.3 1.6 3.8 1.7 1.6 4.2 1.6 1.9 0 3.4-1 1.6-0.9 2.5-2.9zm14.6 13.4q2.2 0 3.7-1.3 1.6-1.2 1.6-3 0-1-0.5-1.8-0.5-0.8-1.4-1.3-0.9-0.5-2-1-1.1-0.4-2.4-0.7-1.2-0.4-2.5-0.7-1.2-0.4-2.3-0.8-1.1-0.5-2-1-0.9-0.6-1.4-1.5-0.5-0.8-0.5-1.9 0-2.4 2.3-3.8 2.3-1.4 5.9-1.4 3.2 0 5.5 1.1 2.2 1.2 2.6 3 0.1 0.5-0.1 0.8-0.3 0.3-0.7 0.3-0.4 0-0.8-0.3-0.3-0.3-0.5-0.8-0.7-2-2.2-2.9-1.4-0.9-3.9-0.9-2.9 0-4.7 1.1-1.8 1-1.8 2.9 0 1.2 0.8 2 0.8 0.9 2.2 1.5 1.3 0.6 3 1.1 1.6 0.4 3.2 1 1.7 0.5 3 1.2 1.4 0.6 2.2 1.7 0.8 1.1 0.8 2.5 0 2.4-2.1 3.8-2.2 1.4-5.8 1.4-2.3 0-4.8-0.6-2.5-0.6-3.9-1.4v-3.4q1.7 2.1 4.4 3.6 2.6 1.5 5.1 1.5z"/>
	<path id="Layer" fill-rule="evenodd" class="s0" d="m129.5 67c-2.2 0-4-1.7-4-4 0-2.4 1.8-4 4-4 0.9 0 2.1 0.2 3 1.4l-0.5 0.4c-0.7-1-1.7-1.2-2.5-1.2-1.8 0-3.3 1.4-3.3 3.4 0 2 1.5 3.3 3.3 3.3 0.8 0 1.8-0.2 2.5-1.1l0.5 0.3c-0.9 1.2-2.1 1.5-3 1.5zm11.7 0c-2.1 0-4-1.6-4-4 0-2.4 1.9-4 4-4 2.1 0 3.9 1.6 3.9 4 0 2.4-1.8 4-3.9 4zm-3.3-4c0 2 1.6 3.3 3.3 3.3 1.7 0 3.2-1.3 3.2-3.3 0-2.1-1.5-3.4-3.2-3.4-1.7 0-3.3 1.3-3.3 3.4zm12.4 3.9v-7.8h0.8l3.2 6.9 3.3-6.9h0.7v7.8h-0.6v-6.4h-0.1l-3 6.4h-0.5l-3.1-6.4v6.4zm19.6 0v-7.8h0.7l4.8 6.6v-6.6h0.7v7.8h-0.7l-4.7-6.7h-0.1v6.7zm14.2-7.8h0.6l3.2 7.8h-0.8l-0.8-2h-3.8l-0.8 2h-0.8zm-1.3 5.2h3.4l-1.7-4.3zm10.6 2.6v-7.1h-2.1v-0.7h5v0.7h-2.2v7.1zm9.4-7.8h0.6l3.2 7.8h-0.8l-0.8-2h-3.8l-0.8 2h-0.8zm-1.3 5.2h3.3l-1.6-4.3zm1.4-5.9l0.9-1.7h0.6l-0.9 1.7zm8.6 8.6v-7.8h0.6v7.1h3.6v0.7zm9.4 0v-7.8h0.6v7.8zm8.7-7.8h0.7l3.1 7.8h-0.7l-0.8-2h-3.9l-0.8 2h-0.7zm-1.4 5.1h3.4l-1.7-4.2zm16.3 2.6v-7.8h4.1v0.6h-3.4v3h3.1v0.6h-3.1v3.6zm9.2 0v-7.8h4.1v0.6h-3.4v3h2.9v0.6h-2.9v3h3.5v0.6zm13.8 0l-1.9-2.8h-1.9v2.8h-0.7v-7.8h2.4c1.7 0 2.7 1.1 2.7 2.5 0 1.2-0.7 2.1-1.8 2.4l2 2.9zm-3.8-3.5h1.6c1.2 0 2-0.6 2-1.8 0-1.2-0.8-1.9-2-1.9h-1.6zm14.1 3.5l-1.9-2.8h-1.9v2.8h-0.7v-7.8h2.4c1.7 0 2.7 1.1 2.7 2.5 0 1.2-0.7 2.1-1.8 2.4l2 2.9zm-3.8-3.5h1.6c1.2 0 2-0.6 2-1.8 0-1.2-0.8-1.8-2-1.8h-1.6zm9.6 3.4v-7.8h4.1v0.7h-3.4v2.9h2.9v0.6h-2.9v3h3.5v0.6zm9.3 0v-7.8h0.7v7.8zm10.5 0l-1.9-2.8h-1.9v2.8h-0.7v-7.8h2.4c1.6 0 2.6 1.1 2.6 2.5 0 1.2-0.6 2.1-1.8 2.4l2 2.9zm-3.8-3.4h1.7c1.2 0 2-0.7 2-1.9 0-1.2-0.8-1.8-2-1.8h-1.7zm12.3-4.4h0.6l3.2 7.8h-0.8l-0.8-1.9h-3.8l-0.8 1.9h-0.8zm-1.3 5.2h3.3l-1.6-4.2z"/>
</svg>