<svg width="22" height="47" viewBox="0 0 22 47" fill="none" xmlns="http://www.w3.org/2000/svg">
<path d="M10.9947 46.8789C10.7829 46.8789 10.5797 46.7968 10.43 46.6506C10.2802 46.5045 10.196 46.3063 10.196 46.0996V35.5529C10.196 35.3462 10.2802 35.148 10.43 35.0019C10.5797 34.8557 10.7829 34.7736 10.9947 34.7736C11.2065 34.7736 11.4096 34.8557 11.5594 35.0019C11.7092 35.148 11.7933 35.3462 11.7933 35.5529V46.0788C11.7962 46.1829 11.7776 46.2864 11.7388 46.3834C11.6999 46.4804 11.6415 46.5687 11.5671 46.6433C11.4926 46.7179 11.4036 46.7772 11.3053 46.8176C11.207 46.8581 11.1014 46.8789 10.9947 46.8789Z" fill="#A07354"/>
<path d="M10.9947 46.8789C10.7984 46.8792 10.6088 46.8089 10.4623 46.6815L5.67039 42.5875C5.59173 42.5193 5.52761 42.4366 5.4817 42.3442C5.43578 42.2518 5.40897 42.1514 5.40279 42.0489C5.39661 41.9464 5.41118 41.8437 5.44568 41.7467C5.48017 41.6497 5.53392 41.5602 5.60384 41.4835C5.67376 41.4067 5.75848 41.3442 5.85318 41.2993C5.94788 41.2545 6.0507 41.2284 6.15576 41.2223C6.26082 41.2163 6.36607 41.2305 6.4655 41.2642C6.56493 41.2979 6.65659 41.3503 6.73525 41.4185L11.5271 45.5125C11.6065 45.5791 11.6715 45.6604 11.7185 45.7517C11.7655 45.843 11.7936 45.9425 11.801 46.0444C11.8084 46.1463 11.7951 46.2486 11.7618 46.3455C11.7285 46.4423 11.6759 46.5318 11.607 46.6087C11.5307 46.6939 11.4366 46.7621 11.3309 46.8087C11.2253 46.8554 11.1106 46.8793 10.9947 46.8789Z" fill="#A07354"/>
<path d="M10.9947 46.8789C10.8315 46.8803 10.6718 46.833 10.537 46.7431C10.4023 46.6533 10.2989 46.5254 10.2409 46.3766C10.1829 46.2277 10.1731 46.0651 10.2126 45.9106C10.2522 45.7561 10.3393 45.6172 10.4623 45.5125L15.2541 41.4185C15.3328 41.3503 15.4244 41.2979 15.5239 41.2642C15.6233 41.2305 15.7285 41.2163 15.8336 41.2223C15.9387 41.2284 16.0415 41.2545 16.1362 41.2993C16.2309 41.3441 16.3156 41.4067 16.3855 41.4835C16.4555 41.5602 16.5092 41.6497 16.5437 41.7467C16.5782 41.8437 16.5928 41.9464 16.5866 42.0489C16.5804 42.1514 16.5536 42.2518 16.5077 42.3442C16.4618 42.4366 16.3976 42.5193 16.319 42.5875L11.5271 46.6815C11.3813 46.8102 11.1913 46.8806 10.9947 46.8789ZM13.939 31.672H8.04502C5.91222 31.6692 3.86758 30.8413 2.35946 29.3697C0.851335 27.898 0.0028333 25.9029 1.5851e-05 23.8217V8.75512C-0.00208355 7.72241 0.20438 6.69942 0.607609 5.7446C1.01084 4.78979 1.60293 3.92186 2.35005 3.19042C3.09716 2.45898 3.98466 1.87836 4.96183 1.48174C5.93901 1.08512 6.98669 0.880276 8.04502 0.878913H13.939C14.9967 0.877548 16.0442 1.07955 17.0218 1.47339C17.9994 1.86723 18.8879 2.44517 19.6365 3.1742C20.3851 3.90323 20.9791 4.76905 21.3847 5.7222C21.7902 6.67534 21.9993 7.69712 22 8.72914V23.8217C21.9993 24.8538 21.7902 25.8755 21.3847 26.8287C20.9791 27.7818 20.3851 28.6477 19.6365 29.3767C18.8879 30.1057 17.9994 30.6837 17.0218 31.0775C16.0442 31.4713 14.9967 31.6733 13.939 31.672ZM8.04502 2.43753C6.33541 2.43891 4.69623 3.10221 3.48735 4.28182C2.27848 5.46143 1.59871 7.06093 1.5973 8.72914V23.8217C1.60012 25.4895 2.28034 27.0882 3.48891 28.2676C4.69748 29.4469 6.33585 30.1106 8.04502 30.1134H13.939C14.7869 30.1147 15.6267 29.953 16.4105 29.6375C17.1943 29.322 17.9067 28.8589 18.507 28.2746C19.1073 27.6903 19.5837 26.9963 19.909 26.2322C20.2342 25.4682 20.402 24.6491 20.4027 23.8217V8.75512C20.4055 7.92559 20.2403 7.10369 19.9166 6.33665C19.5929 5.5696 19.1171 4.87253 18.5164 4.28548C17.9158 3.69843 17.2022 3.23296 16.4167 2.91583C15.6312 2.5987 14.7891 2.43616 13.939 2.43753H8.04502Z" fill="#A07354"/>
<path d="M10.9947 13.8206C10.7829 13.8206 10.5797 13.7385 10.43 13.5924C10.2802 13.4462 10.196 13.248 10.196 13.0413V9.12919C10.196 8.9225 10.2802 8.72428 10.43 8.57814C10.5797 8.43199 10.7829 8.34988 10.9947 8.34988C11.2065 8.34988 11.4096 8.43199 11.5594 8.57814C11.7092 8.72428 11.7933 8.9225 11.7933 9.12919V13.0413C11.7933 13.248 11.7092 13.4462 11.5594 13.5924C11.4096 13.7385 11.2065 13.8206 10.9947 13.8206Z" fill="#A07354"/>
</svg>
